# Blender 3.6.5
# www.blender.org
o 蛋壳
v 0.000000 0.100629 -0.035670
v 0.025222 0.100629 -0.025222
v 0.035670 0.100629 0.000000
v 0.025222 0.100629 0.025222
v 0.000000 0.100629 0.035670
v -0.025222 0.100629 0.025222
v -0.035670 0.100629 0.000000
v -0.025222 0.100629 -0.025222
v -0.000000 -0.049532 -0.065839
v 0.046555 -0.049532 -0.046555
v 0.065839 -0.049532 0.000000
v 0.046555 -0.049532 0.046555
v -0.000000 -0.049532 0.065839
v -0.046555 -0.049532 0.046555
v -0.065839 -0.049532 0.000000
v -0.046555 -0.049532 -0.046555
v 0.000000 0.060168 -0.064768
v 0.045798 0.060168 -0.045798
v 0.064768 0.060168 -0.000000
v 0.045798 0.060168 0.045798
v 0.000000 0.060168 0.064768
v -0.045798 0.060168 0.045798
v -0.064768 0.060168 -0.000000
v -0.045798 0.060168 -0.045798
v 0.000000 -0.075612 -0.030157
v 0.021325 -0.075612 -0.021325
v 0.030157 -0.075612 0.000000
v 0.021325 -0.075612 0.021325
v 0.000000 -0.075612 0.030157
v -0.021325 -0.075612 0.021325
v -0.030157 -0.075612 0.000000
v -0.021325 -0.075612 -0.021325
v 0.007993 0.110337 -0.007993
v 0.000000 0.110337 -0.011303
v 0.011303 0.110337 0.000000
v 0.007993 0.110337 0.007993
v 0.000000 0.110337 0.011303
v -0.007993 0.110337 0.007993
v -0.011303 0.110337 0.000000
v -0.007993 0.110337 -0.007993
v 0.054025 -0.012999 -0.054025
v 0.076403 -0.012999 -0.000000
v 0.054025 -0.012999 0.054025
v 0.000000 -0.012999 0.076403
v -0.054025 -0.012999 0.054025
v -0.076403 -0.012999 -0.000000
v -0.054025 -0.012999 -0.054025
v 0.000000 -0.012999 -0.076403
vn 0.3187 0.5534 -0.7695
vn 0.7695 0.5534 -0.3187
vn 0.7695 0.5534 0.3187
vn 0.3187 0.5534 0.7695
vn -0.3187 0.5534 0.7695
vn -0.7695 0.5534 0.3187
vn -0.3658 0.9183 -0.1515
vn -0.7695 0.5534 -0.3187
vn -0.3187 0.5534 -0.7695
vn 0.2374 -0.7843 0.5732
vn -0.2374 -0.7843 -0.5732
vn -0.5732 -0.7843 -0.2374
vn -0.5732 -0.7843 0.2374
vn -0.2374 -0.7843 0.5732
vn 0.5732 -0.7843 0.2374
vn 0.5732 -0.7843 -0.2374
vn -0.3786 0.1454 -0.9141
vn -0.9141 0.1454 -0.3786
vn -0.9141 0.1454 0.3786
vn -0.3786 0.1454 0.9141
vn 0.3786 0.1454 0.9141
vn 0.9141 0.1454 0.3786
vn 0.9141 0.1454 -0.3786
vn 0.3786 0.1454 -0.9141
vn -0.0000 -1.0000 -0.0000
vn -0.0000 1.0000 -0.0000
vn 0.3658 0.9183 -0.1515
vn -0.1515 0.9183 0.3658
vn -0.1515 0.9183 -0.3658
vn 0.1515 0.9183 -0.3658
vn 0.3658 0.9183 0.1515
vn -0.3658 0.9183 0.1515
vn 0.1515 0.9183 0.3658
vn 0.3697 -0.2581 -0.8926
vn 0.8926 -0.2581 -0.3697
vn 0.8926 -0.2581 0.3697
vn 0.3697 -0.2581 0.8926
vn -0.3697 -0.2581 0.8926
vn -0.8926 -0.2581 0.3697
vn -0.8926 -0.2581 -0.3697
vn -0.3697 -0.2581 -0.8926
vn 0.2374 -0.7843 -0.5732
vt 1.000000 0.839651
vt 1.000000 1.000000
vt 0.875000 1.000000
vt 0.875000 0.839651
vt 0.750000 1.000000
vt 0.750000 0.839651
vt 0.625000 1.000000
vt 0.625000 0.839651
vt 0.500000 1.000000
vt 0.500000 0.839651
vt 0.375000 1.000000
vt 0.375000 0.839651
vt 0.250000 1.000000
vt 0.250000 0.839651
vt 0.125000 1.000000
vt 0.125000 0.839651
vt 0.000000 1.000000
vt 0.000000 0.839651
vt 0.500000 0.652023
vt 0.500000 0.500000
vt 0.625000 0.500000
vt 0.625000 0.652023
vt 0.000000 0.652023
vt 0.000000 0.500000
vt 0.125000 0.500000
vt 0.125000 0.652023
vt 0.250000 0.500000
vt 0.250000 0.652023
vt 0.375000 0.500000
vt 0.375000 0.652023
vt 0.750000 0.652023
vt 0.750000 0.500000
vt 0.875000 0.500000
vt 0.875000 0.652023
vt 0.125000 0.741610
vt 0.000000 0.741610
vt 0.250000 0.741610
vt 0.375000 0.741610
vt 0.500000 0.741610
vt 0.625000 0.741610
vt 0.750000 0.741610
vt 0.875000 0.741610
vt 1.000000 0.741610
vt 0.750000 0.490000
vt 0.919706 0.419706
vt 0.990000 0.250000
vt 0.919706 0.080294
vt 0.750000 0.010000
vt 0.580294 0.080294
vt 0.510000 0.250000
vt 0.580294 0.419706
vt 0.419706 0.419706
vt 0.250000 0.490000
vt 0.080294 0.419706
vt 0.010000 0.250000
vt 0.080294 0.080294
vt 0.250000 0.010000
vt 0.419706 0.080294
vt 0.490000 0.250000
vt 1.000000 0.652023
vt 1.000000 0.500000
s 0
f 17/1/1 1/2/1 2/3/1 18/4/1
f 18/4/2 2/3/2 3/5/2 19/6/2
f 19/6/3 3/5/3 4/7/3 20/8/3
f 20/8/4 4/7/4 5/9/4 21/10/4
f 21/10/5 5/9/5 6/11/5 22/12/5
f 22/12/6 6/11/6 7/13/6 23/14/6
f 8/15/7 7/13/7 39/13/7 40/15/7
f 23/14/8 7/13/8 8/15/8 24/16/8
f 24/16/9 8/15/9 1/17/9 17/18/9
f 13/19/10 29/20/10 28/21/10 12/22/10
f 9/23/11 25/24/11 32/25/11 16/26/11
f 16/26/12 32/25/12 31/27/12 15/28/12
f 15/28/13 31/27/13 30/29/13 14/30/13
f 14/30/14 30/29/14 29/20/14 13/19/14
f 11/31/15 12/22/15 28/21/15 27/32/15
f 11/31/16 27/32/16 26/33/16 10/34/16
f 47/35/17 24/16/17 17/18/17 48/36/17
f 46/37/18 23/14/18 24/16/18 47/35/18
f 45/38/19 22/12/19 23/14/19 46/37/19
f 44/39/20 21/10/20 22/12/20 45/38/20
f 43/40/21 20/8/21 21/10/21 44/39/21
f 42/41/22 19/6/22 20/8/22 43/40/22
f 41/42/23 18/4/23 19/6/23 42/41/23
f 48/43/24 17/1/24 18/4/24 41/42/24
f 25/44/25 26/45/25 27/46/25 28/47/25 29/48/25 30/49/25 31/50/25 32/51/25
f 33/52/26 34/53/26 40/54/26 39/55/26 38/56/26 37/57/26 36/58/26 35/59/26
f 3/5/27 2/3/27 33/3/27 35/5/27
f 6/11/28 5/9/28 37/9/28 38/11/28
f 1/17/29 8/15/29 40/15/29 34/17/29
f 2/3/30 1/2/30 34/2/30 33/3/30
f 4/7/31 3/5/31 35/5/31 36/7/31
f 7/13/32 6/11/32 38/11/32 39/13/32
f 5/9/33 4/7/33 36/7/33 37/9/33
f 9/60/34 48/43/34 41/42/34 10/34/34
f 10/34/35 41/42/35 42/41/35 11/31/35
f 11/31/36 42/41/36 43/40/36 12/22/36
f 12/22/37 43/40/37 44/39/37 13/19/37
f 13/19/38 44/39/38 45/38/38 14/30/38
f 14/30/39 45/38/39 46/37/39 15/28/39
f 15/28/40 46/37/40 47/35/40 16/26/40
f 16/26/41 47/35/41 48/36/41 9/23/41
f 10/34/42 26/33/42 25/61/42 9/60/42
